<svg width="12" height="12" viewBox="0 0 12 12" fill="none" xmlns="http://www.w3.org/2000/svg">
<path d="M1.91797 0.75H10.668C10.9774 0.75 11.2741 0.872916 11.4929 1.09171C11.7117 1.3105 11.8346 1.60725 11.8346 1.91667V3.66667C11.8346 3.97609 11.7117 4.27283 11.4929 4.49162C11.2741 4.71042 10.9774 4.83333 10.668 4.83333H9.5013V6.58333C9.5013 7.20217 9.25547 7.79566 8.81788 8.23325C8.3803 8.67083 7.78681 8.91667 7.16797 8.91667H3.66797C3.04913 8.91667 2.45564 8.67083 2.01805 8.23325C1.58047 7.79566 1.33464 7.20217 1.33464 6.58333V1.33333C1.33464 1.17862 1.39609 1.03025 1.50549 0.920854C1.61489 0.811458 1.76326 0.75 1.91797 0.75ZM9.5013 1.91667V3.66667H10.668V1.91667H9.5013ZM0.167969 10.0833H10.668V11.25H0.167969V10.0833Z" fill="#1B1F23"/>
</svg>
