<svg width="15" height="16" viewBox="0 0 15 16" fill="none" xmlns="http://www.w3.org/2000/svg">
<g clip-path="url(#clip0_10435_5635)">
<path d="M8.87423 8.01266L14.7149 2.17178C15.095 1.79185 15.095 1.17756 14.7149 0.797639C14.335 0.417714 13.7207 0.417714 13.3408 0.797639L7.49992 6.63852L1.65921 0.797639C1.27911 0.417714 0.665002 0.417714 0.285077 0.797639C-0.0950257 1.17756 -0.0950257 1.79185 0.285077 2.17178L6.12578 8.01266L0.285077 13.8535C-0.0950257 14.2335 -0.0950257 14.8477 0.285077 15.2277C0.474417 15.4172 0.72337 15.5124 0.972145 15.5124C1.22092 15.5124 1.4697 15.4172 1.65921 15.2277L7.49992 9.38679L13.3408 15.2277C13.5303 15.4172 13.7791 15.5124 14.0279 15.5124C14.2766 15.5124 14.5254 15.4172 14.7149 15.2277C15.095 14.8477 15.095 14.2335 14.7149 13.8535L8.87423 8.01266Z" fill="black"/>
</g>
<defs>
<clipPath id="clip0_10435_5635">
<rect width="15" height="15" fill="white" transform="translate(0 0.5)"/>
</clipPath>
</defs>
</svg>
