<svg width="13" height="10" viewBox="0 0 13 10" fill="none" xmlns="http://www.w3.org/2000/svg">
<path d="M5.40179 0.182292L0.6875 4.55729C0.5625 4.67882 0.5 4.82639 0.5 5C0.5 5.17361 0.5625 5.32118 0.6875 5.44271L5.40179 9.81771C5.72321 10.0608 6.02679 10.0608 6.3125 9.81771C6.5625 9.50521 6.5625 9.21007 6.3125 8.93229L2.75 5.625H11.8571C12.25 5.59028 12.4643 5.38194 12.5 5C12.4643 4.61806 12.25 4.40972 11.8571 4.375H2.75L6.3125 1.06771C6.5625 0.789931 6.5625 0.494792 6.3125 0.182292C6.02679 -0.0607639 5.72321 -0.0607639 5.40179 0.182292Z" fill="#1B1F23"/>
</svg>
