<svg width="20" height="24" viewBox="0 0 20 24" fill="none" xmlns="http://www.w3.org/2000/svg">
<path d="M18.5777 1.42969H14.8042V0.515625C14.8042 0.230625 14.5736 0 14.2886 0H5.71143C5.42643 0 5.1958 0.230625 5.1958 0.515625V1.42969H1.42236C1.13783 1.42969 0.906738 1.66031 0.906738 1.94531V23.4844C0.906738 23.7694 1.13783 24 1.42236 24H18.5777C18.8622 24 19.0933 23.7694 19.0933 23.4844V1.94531C19.0933 1.66031 18.8622 1.42969 18.5777 1.42969ZM6.22705 1.03125H13.773V2.85938H6.22705V1.03125ZM18.062 22.9688H1.93799V2.46094H5.1958V3.375C5.1958 3.65953 5.42643 3.89062 5.71143 3.89062H14.2886C14.5736 3.89062 14.8042 3.65953 14.8042 3.375V2.46094H18.062V22.9688Z" fill="white"/>
<path d="M5.71121 9.65655C4.63862 9.65655 3.76599 8.78393 3.76599 7.71133C3.76599 6.63874 4.63862 5.76611 5.71121 5.76611C6.7838 5.76611 7.65643 6.63874 7.65643 7.71133C7.65643 8.78393 6.7838 9.65655 5.71121 9.65655ZM5.71121 6.79736C5.20726 6.79736 4.79724 7.20738 4.79724 7.71133C4.79724 8.21528 5.20726 8.6253 5.71121 8.6253C6.21516 8.6253 6.62518 8.21528 6.62518 7.71133C6.62518 7.20738 6.21516 6.79736 5.71121 6.79736Z" fill="white"/>
<path d="M5.71121 21.0931C4.63862 21.0931 3.76599 20.2204 3.76599 19.1479C3.76599 18.0753 4.63862 17.2026 5.71121 17.2026C6.7838 17.2026 7.65643 18.0753 7.65643 19.1479C7.65643 20.2205 6.7838 21.0931 5.71121 21.0931ZM5.71121 18.2339C5.20726 18.2339 4.79724 18.6439 4.79724 19.1479C4.79724 19.6519 5.20726 20.0619 5.71121 20.0619C6.21516 20.0619 6.62518 19.6519 6.62518 19.1479C6.62518 18.6439 6.21516 18.2339 5.71121 18.2339Z" fill="white"/>
<path d="M15.7184 8.22705H10C9.71523 8.22705 9.48438 7.99619 9.48438 7.71143C9.48438 7.42666 9.71523 7.1958 10 7.1958H15.7184C16.0031 7.1958 16.234 7.42666 16.234 7.71143C16.234 7.99619 16.0031 8.22705 15.7184 8.22705Z" fill="#FFED92"/>
<path d="M15.7184 13.9453H10C9.71523 13.9453 9.48438 13.7145 9.48438 13.4297C9.48438 13.1449 9.71523 12.9141 10 12.9141H15.7184C16.0031 12.9141 16.234 13.1449 16.234 13.4297C16.234 13.7145 16.0031 13.9453 15.7184 13.9453Z" fill="white"/>
<path d="M15.7184 19.6636H10C9.71523 19.6636 9.48438 19.4327 9.48438 19.1479C9.48438 18.8632 9.71523 18.6323 10 18.6323H15.7184C16.0031 18.6323 16.234 18.8632 16.234 19.1479C16.234 19.4327 16.0031 19.6636 15.7184 19.6636Z" fill="#FFED92"/>
<path d="M5.71115 15.3749C5.57521 15.3749 5.44382 15.3211 5.3466 15.2239L3.917 13.7943C3.71568 13.5929 3.71563 13.2664 3.917 13.0651C4.11838 12.8637 4.44486 12.8637 4.64624 13.0651L5.61871 14.0375L6.84721 12.0831C6.99875 11.8419 7.31704 11.7694 7.55816 11.9209C7.79924 12.0725 7.87185 12.3908 7.7203 12.6319L6.14779 15.1336C6.0643 15.2665 5.92485 15.3541 5.76894 15.3716C5.74963 15.3738 5.73036 15.3749 5.71115 15.3749Z" fill="#FFED92"/>
</svg>
